<svg version="1.1" id="Layer_1" xmlns="http://www.w3.org/2000/svg" x="0px" y="0px" width="841.89px" height="595.28px" viewBox="0 0 841.89 595.28" enable-background="new 0 0 841.89 595.28" xml:space="preserve"><circle fill="#26336E" cx="262.782" cy="229.067" r="6.82"/><circle fill="#26336E" cx="164.698" cy="229.199" r="6.82"/><circle fill="#26336E" cx="312.435" cy="369.108" r="6.82"/><circle fill="#26336E" cx="213.158" cy="369.108" r="6.821"/><rect x="184.275" y="227.409" transform="matrix(0.9475 -0.3196 0.3196 0.9475 -85.8553 75.848)" fill="#26336E" width="7.742" height="144.153"/><rect x="283.554" y="227.409" transform="matrix(0.9475 -0.3196 0.3196 0.9475 -80.6473 107.5804)" fill="#26336E" width="7.742" height="144.153"/><polygon fill="#26336E" points="354.919 235.598 310.72 366.68 318.056 369.153 362.423 237.576"/><rect x="234.269" y="227.543" transform="matrix(-0.9476 -0.3195 0.3195 -0.9476 368.0624 659.6213)" fill="#26336E" width="7.742" height="144.152"/><path fill="#26336E" d="M360.933 219.352c-5.896 0-10.676 4.779-10.676 10.674 0 5.896 4.779 10.676 10.676 10.676 5.895 0 10.674-4.779 10.674-10.676C371.606 224.131 366.827 219.352 360.933 219.352zM360.933 235.363c-2.947 0-5.338-2.39-5.338-5.338 0-2.947 2.391-5.336 5.338-5.336s5.338 2.389 5.338 5.336C366.271 232.974 363.88 235.363 360.933 235.363z"/><path fill="#26336E" d="M392.231 334.364c0-6.36 2.109-10.468 9.67-10.468 3.6 0 5.779 1.309 7.234 2.871l-2 1.891c-0.98-0.982-2.543-2.109-5.234-2.109 -5.27 0-6.906 2.873-6.906 7.889 0 4.943 1.562 7.887 6.906 7.887 2.291 0 3.854-0.727 5.381-2.106l1.854 1.743c-2 1.819-3.963 2.836-7.307 2.836C394.341 344.797 392.231 340.727 392.231 334.364zM412.581 334.411c0-6.905 2.725-10.469 9.668-10.469s9.705 3.563 9.705 10.469c0 6.907-2.762 10.47-9.705 10.47S412.581 341.318 412.581 334.411zM429.155 334.484c0-5.162-1.855-7.925-6.906-7.925 -5.053 0-6.906 2.763-6.906 7.925 0 5.126 1.854 7.887 6.906 7.887C427.3 342.371 429.155 339.61 429.155 334.484zM436.216 324.561l2.182-0.145 0.254 2.107c0.764-1.381 2.725-2.581 7.234-2.581 4.434 0 5.705 1.127 6.215 2.728 0.908-1.564 3.162-2.728 7.779-2.728 6.469 0 7.051 3.345 7.051 8.288v12.25h-2.762v-11.777c0-3.562-0.145-6.033-5.09-6.033 -5.344 0-6.143 2.762-6.143 6.542v11.269h-2.727v-11.777c0-3.562-0.145-6.033-5.088-6.033 -5.346 0-6.145 2.762-6.145 6.542v11.269h-2.762V324.561zM472.308 324.561l2.184-0.145 0.254 2.107c0.762-1.381 2.727-2.581 7.234-2.581 4.434 0 5.707 1.127 6.215 2.728 0.908-1.564 3.162-2.728 7.779-2.728 6.469 0 7.053 3.345 7.053 8.288v12.25h-2.764v-11.777c0-3.562-0.146-6.033-5.09-6.033 -5.342 0-6.143 2.762-6.143 6.542v11.269h-2.727v-11.777c0-3.562-0.145-6.033-5.088-6.033 -5.344 0-6.145 2.762-6.145 6.542v11.269h-2.764V324.561zM507.917 336.229v-11.813h2.729v11.885c0 3.31 0 6.035 5.852 6.035 5.816 0 5.744-2.726 5.744-6.18v-11.74h2.689v11.705c0 5.451-0.691 8.723-8.434 8.723C508.718 344.844 507.917 341.572 507.917 336.229zM530.204 324.561l2.182-0.145 0.254 2.107c0.873-1.381 2.801-2.581 7.451-2.581 6.475 0 7.236 3.345 7.236 8.288v12.25h-2.766v-11.777c0-3.562-0.324-6.033-5.27-6.033 -5.344 0-6.326 2.762-6.326 6.542v11.269h-2.762V324.561zM552.831 317.836h2.764v3.926h-2.764V317.836zM552.831 324.416h2.727v20.064h-2.727V324.416zM560.226 334.411c0-6.361 2.107-10.469 9.67-10.469 3.598 0 5.779 1.31 7.232 2.872l-1.998 1.891c-0.982-0.982-2.545-2.109-5.234-2.109 -5.271 0-6.908 2.873-6.908 7.889 0 4.943 1.564 7.887 6.908 7.887 2.289 0 3.852-0.727 5.379-2.107l1.854 1.744c-1.998 1.818-3.961 2.836-7.307 2.836C562.333 344.844 560.226 340.773 560.226 334.411zM580.112 338.883c0-5.707 3.199-7.416 13.377-7.416h1.199c-0.072-3.417-0.799-4.943-5.414-4.943 -2.545 0-4.727 0.908-6 1.746l-1.451-2.146c1.307-0.908 4.324-2.181 7.668-2.181 6.762 0 7.852 2.364 7.852 8.106v7.562c0 2.145 0.145 2.435 2.072 2.435v2.399c-0.182 0.072-0.545 0.072-1.09 0.072 -2.326 0-2.945-0.727-3.271-2.509 -1.236 1.892-3.381 2.836-7.889 2.836C581.53 344.844 580.112 342.263 580.112 338.883zM594.688 335.43v-1.455h-1.053c-8.723 0-10.869 0.946-10.869 4.727 0 2.398 1.09 3.78 4.799 3.78C592.618 342.481 594.688 340.3 594.688 335.43zM600.8 324.416h3.672l0.475-6.035 2.18-0.399v6.435h5.525v2.508h-5.525v12.068c0 1.854 0.254 3.053 3.055 3.053h2.471v2.436c-0.291 0.036-2.508 0.036-2.908 0.036 -4.508 0-5.344-1.817-5.344-5.198v-12.395h-3.6V324.416zM617.61 317.836h2.762v3.926h-2.762V317.836zM617.61 324.416h2.725v20.064h-2.725V324.416zM624.909 334.411c0-6.905 2.727-10.469 9.67-10.469s9.705 3.563 9.705 10.469c0 6.907-2.762 10.47-9.705 10.47S624.909 341.318 624.909 334.411zM641.487 334.484c0-5.162-1.855-7.925-6.908-7.925s-6.906 2.763-6.906 7.925c0 5.126 1.854 7.887 6.906 7.887S641.487 339.61 641.487 334.484zM648.595 324.561l2.18-0.145 0.256 2.107c0.871-1.381 2.797-2.581 7.451-2.581 6.471 0 7.232 3.345 7.232 8.288v12.25h-2.762v-11.777c0-3.562-0.326-6.033-5.271-6.033 -5.344 0-6.322 2.762-6.322 6.542v11.269h-2.764V324.561zM669.364 342.59l1.453-2.145c2.363 1.527 4.945 2 7.053 2 3.635 0 5.307-0.69 5.307-3.526 0-2.253-1.455-2.689-5.307-3.453 -4.652-0.909-7.561-1.708-7.561-6.034 0-3.453 2.035-5.489 7.561-5.489 3.018 0 5.488 0.655 7.344 1.745l-1.311 2.254c-1.525-0.836-3.561-1.455-5.996-1.455 -3.781 0-4.873 1.129-4.873 2.945 0 2.217 1.457 2.764 4.982 3.453 4.869 0.982 7.814 1.637 7.814 5.926 0 4.58-2.545 6.033-8.105 6.033C675.071 344.844 672.091 344.371 669.364 342.59z"/><path fill="#26336E" d="M389.415 274.43h4.453l8.965 25.203 8.4-25.203h4.23l8.344 25.146 8.965-25.146h4.342l-11.221 31.406h-4.229l-8.4-24.979 -8.4 24.979h-4.23L389.415 274.43zM440.542 289.936c0-10.713 4.229-16.238 14.998-16.238s15.055 5.525 15.055 16.238 -4.285 16.238-15.055 16.238S440.542 300.648 440.542 289.936zM466.253 290.048c0-8.007-2.875-12.292-10.713-12.292s-10.713 4.285-10.713 12.292c0 7.95 2.875 12.235 10.713 12.235S466.253 297.998 466.253 290.048zM477.026 274.655l3.383-0.226 0.451 4.173c1.184-2.425 5.018-4.511 10.77-4.567v4.285c-7.613 0-10.318 4.342-10.318 10.431v16.802h-4.285V274.655zM497.835 261.801h4.23v29.77l14.998-17.141h4.736l-11.277 13.024 12.461 18.099h-4.736l-10.545-14.997 -5.637 6.37v8.627h-4.23V261.801zM525.843 289.936c0-10.713 4.229-16.238 14.996-16.238 10.771 0 15.057 5.525 15.057 16.238s-4.285 16.238-15.057 16.238C530.071 306.174 525.843 300.648 525.843 289.936zM551.554 290.048c0-8.007-2.875-12.292-10.715-12.292 -7.836 0-10.711 4.285-10.711 12.292 0 7.95 2.875 12.235 10.711 12.235C548.679 302.283 551.554 297.998 551.554 290.048zM562.187 274.655l3.383-0.226 0.395 3.271c1.354-2.143 4.342-4.003 11.559-4.003 10.035 0 11.219 5.188 11.219 12.854v19.001h-4.283v-18.268c0-5.525-0.508-9.359-8.176-9.359 -8.289 0-9.811 4.285-9.811 10.148v17.479h-4.285V274.655zM596.765 298.111v-36.311h4.229v35.859c0 3.045 0.396 4.115 3.609 4.115h1.352v3.721c-0.451 0.057-1.521 0.113-2.705 0.113C598.175 305.609 596.765 303.41 596.765 298.111zM613.181 264.225h4.285v6.09h-4.285V264.225zM613.181 274.43h4.229v31.123h-4.229V274.43zM626.317 274.655l3.383-0.226 0.395 3.271c1.354-2.143 4.342-4.003 11.559-4.003 10.035 0 11.221 5.188 11.221 12.854v19.001h-4.285v-18.268c0-5.525-0.508-9.359-8.176-9.359 -8.289 0-9.811 4.285-9.811 10.148v17.479h-4.285V274.655zM658.427 289.936c0-9.021 2.707-16.238 14.773-16.238 12.518 0 12.912 8.626 12.799 17.703h-23.457c0.227 6.541 2.145 11.052 10.828 11.052 5.129 0 7.553-1.354 10.035-3.157l2.312 2.988c-3.102 2.367-6.598 3.891-12.348 3.891C660.851 306.174 658.427 299.014 658.427 289.936zM662.601 287.511h19.338c-0.281-5.525-0.676-9.979-8.852-9.979C665.249 277.531 663.052 281.533 662.601 287.511z"/></svg>
